# xmcd CD database file
#
# Track frame offsets:
#	150
#	10445
#	25775
#	38227
#	50297
#	65497
#	81085
#	99250
#	112710
#	125860
#
# Disc length: 1833 seconds
#
# Revision: 4
# Processed by: cddbd v1.4PL0 Copyright (c) Steve Scherf et al.
# Submitted via: CDex 1.50
#
DISCID=7707270a
DTITLE=George Jones - One Woman Man
DYEAR=1989
DGENRE=Country
TTITLE0=Im A One Woman Man
TTITLE1=My Baby's Gone
TTITLE2=Don't You Ever Get Tired (Of Hunting Me)
TTITLE3=Burning Bridges
TTITLE4=The King Is Gone (So Are You)
TTITLE5=Radio Lover
TTITLE6=A Place In The Country
TTITLE7=Just Out Out Of Reach
TTITLE8=Writing On The Wall
TTITLE9=Pretty Little Lady From Beaumont Texas
EXTD=YEAR: 1989
EXTT0=
EXTT1=
EXTT2=
EXTT3=
EXTT4=
EXTT5=
EXTT6=
EXTT7=
EXTT8=
EXTT9=
PLAYORDER=
